<?xml version="1.0" standalone="no"?>
<!DOCTYPE svg PUBLIC "-//W3C//DTD SVG 20010904//EN"
 "http://www.w3.org/TR/2001/REC-SVG-20010904/DTD/svg10.dtd">
<svg version="1.0" xmlns="http://www.w3.org/2000/svg"
 width="1620.000000pt" height="1620.000000pt" viewBox="0 0 1620.000000 1620.000000"
 preserveAspectRatio="xMidYMid meet">
<metadata>
Created by potrace 1.14, written by Peter Selinger 2001-2017
</metadata>
<g transform="translate(0.000000,1620.000000) scale(0.100000,-0.100000)"
fill="#000000" stroke="none">
<path d="M7768 16195 c-2 -2 -60 -6 -130 -9 -70 -4 -146 -8 -170 -11 -24 -2
-68 -7 -98 -9 -125 -12 -176 -17 -200 -21 -14 -2 -50 -7 -80 -10 -30 -3 -67
-8 -81 -11 -15 -2 -47 -6 -70 -9 -40 -5 -306 -49 -355 -59 -12 -2 -37 -7 -55
-10 -128 -20 -534 -121 -714 -176 -55 -17 -104 -32 -110 -34 -36 -8 -430 -144
-470 -161 -16 -7 -57 -23 -90 -36 -242 -92 -680 -295 -890 -411 -44 -25 -111
-62 -150 -83 -38 -21 -77 -44 -86 -51 -8 -8 -18 -14 -21 -14 -10 0 -297 -179
-423 -263 -208 -139 -513 -367 -670 -501 -33 -28 -70 -60 -84 -71 -13 -11 -29
-24 -35 -30 -205 -182 -480 -450 -632 -615 -102 -111 -202 -224 -227 -257 -12
-15 -24 -30 -27 -33 -14 -12 -145 -175 -221 -275 -147 -190 -373 -516 -444
-636 -5 -10 -44 -73 -85 -141 -377 -624 -687 -1360 -879 -2084 -38 -140 -105
-428 -116 -498 -3 -17 -12 -67 -21 -111 -8 -44 -17 -96 -20 -115 -3 -19 -9
-57 -14 -85 -5 -27 -12 -72 -15 -100 -13 -102 -16 -120 -20 -140 -2 -11 -7
-51 -10 -90 -4 -38 -9 -83 -11 -100 -28 -226 -39 -469 -38 -850 0 -315 7 -529
19 -615 3 -19 7 -68 10 -109 3 -41 7 -95 10 -120 9 -81 16 -135 22 -171 3 -19
7 -48 8 -65 4 -40 32 -223 41 -269 2 -11 7 -34 9 -51 6 -34 65 -330 71 -357 2
-10 6 -26 8 -35 2 -10 14 -56 26 -103 12 -47 24 -96 27 -110 9 -53 95 -345
151 -516 71 -217 166 -471 227 -609 7 -16 32 -71 54 -122 47 -107 121 -265
161 -343 95 -188 191 -366 220 -410 6 -8 13 -22 17 -30 36 -78 308 -500 441
-685 63 -87 221 -295 232 -305 3 -3 23 -27 45 -55 44 -56 45 -56 176 -209 210
-245 540 -578 775 -782 139 -121 214 -184 294 -248 47 -37 92 -73 100 -79 232
-185 657 -464 995 -655 119 -66 536 -277 640 -322 85 -37 122 -53 210 -90 577
-241 1324 -449 1905 -530 41 -6 86 -12 100 -15 50 -7 106 -15 155 -20 28 -2
70 -7 95 -9 25 -3 77 -8 115 -11 39 -4 88 -8 110 -10 266 -26 1041 -26 1240
-1 17 2 66 7 110 10 154 13 326 32 380 42 11 2 40 6 65 10 25 3 70 10 100 15
30 5 73 12 95 15 22 3 105 19 185 35 199 40 193 39 212 45 10 3 30 7 45 10 16
3 46 10 68 16 22 5 47 12 56 13 30 6 293 77 334 90 22 7 90 28 150 45 113 34
469 158 540 189 22 10 56 24 75 31 73 27 289 122 460 203 52 24 98 44 101 43
3 0 12 4 20 11 8 6 77 44 154 84 132 68 330 179 440 247 28 17 70 43 95 58
218 132 650 443 860 620 263 221 601 542 804 764 285 312 623 745 806 1034 95
150 217 348 238 385 14 25 33 60 42 76 10 17 33 57 52 91 52 91 227 443 287
579 84 188 89 200 132 308 144 359 288 821 374 1197 10 42 65 310 70 340 3 19
8 42 10 50 2 8 7 35 10 60 9 63 14 101 20 130 3 14 7 41 10 60 7 61 17 134 20
152 2 9 7 48 10 85 4 37 8 75 11 83 2 8 6 51 9 95 3 44 8 103 10 130 27 286
27 903 0 1250 -9 119 -14 173 -19 218 -3 26 -8 66 -11 90 -14 124 -16 144 -20
167 -2 14 -11 72 -20 130 -9 58 -18 116 -21 130 -2 14 -7 41 -10 60 -3 19 -17
91 -31 160 -14 69 -27 134 -29 145 -9 45 -14 67 -52 220 -77 308 -202 718
-225 741 -4 4 -7 14 -7 22 0 16 -60 175 -135 362 -155 382 -408 876 -625 1221
-84 132 -163 252 -170 259 -3 3 -25 34 -49 70 -42 61 -136 193 -154 215 -4 6
-33 44 -64 85 -30 41 -67 89 -82 105 -14 17 -42 50 -61 75 -74 96 -205 249
-330 384 -106 116 -430 438 -529 526 -46 41 -89 80 -95 85 -6 6 -54 47 -106
90 -313 263 -634 495 -960 695 -74 45 -147 91 -162 101 -15 10 -30 19 -34 19
-4 0 -28 13 -53 29 -136 86 -598 316 -844 420 -410 173 -842 317 -1257 419
-113 28 -221 53 -240 56 -19 3 -45 8 -57 11 -73 17 -75 17 -178 34 -254 43
-298 49 -470 70 -146 18 -220 25 -365 36 -52 4 -115 9 -140 11 -53 6 -797 13
-802 9z"/>
</g>
</svg>
